<svg width="40.801" height="64.604" viewBox="0 0 40.801 64.604" xmlns="http://www.w3.org/2000/svg"><g id="svgGroup" stroke-linecap="round" fill-rule="evenodd" font-size="9pt" stroke="#000" stroke-width="0.25mm" fill="#000" style="stroke:#000;stroke-width:0.25mm;fill:#000"><path d="M 0.51 23.364 A 73.099 73.099 0 0 0 0.001 32.302 A 74.119 74.119 0 0 0 0.448 40.721 Q 1.548 50.318 5.351 56.252 A 22.783 22.783 0 0 0 6.237 57.538 Q 11.479 64.602 20.401 64.602 A 22.064 22.064 0 0 0 21.596 64.57 Q 26.809 64.287 30.673 61.501 A 18.741 18.741 0 0 0 35.501 56.252 Q 39.165 50.479 40.296 41.24 A 73.78 73.78 0 0 0 40.801 32.302 A 74.811 74.811 0 0 0 40.357 23.882 Q 39.854 19.455 38.782 15.807 A 29.225 29.225 0 0 0 35.501 8.352 A 22.464 22.464 0 0 0 34.686 7.154 Q 31.798 3.194 27.729 1.427 A 18.211 18.211 0 0 0 20.401 0.002 A 21.834 21.834 0 0 0 19.481 0.021 Q 10.444 0.402 5.351 8.352 A 28.802 28.802 0 0 0 2.142 15.464 Q 1.045 19.033 0.51 23.364 Z M 32.401 32.302 A 77.626 77.626 0 0 0 32.117 25.549 A 66.293 66.293 0 0 0 31.801 22.652 A 38.081 38.081 0 0 0 31.062 18.639 Q 30.577 16.641 29.893 14.929 A 23.207 23.207 0 0 0 29.801 14.702 A 16.699 16.699 0 0 0 28.319 11.865 A 12.435 12.435 0 0 0 26.101 9.302 A 8.089 8.089 0 0 0 21.537 7.361 A 10.671 10.671 0 0 0 20.401 7.302 A 9.537 9.537 0 0 0 17.551 7.711 A 7.863 7.863 0 0 0 14.701 9.302 A 12.601 12.601 0 0 0 12.287 12.17 A 17.023 17.023 0 0 0 11.001 14.702 Q 9.644 17.996 9.039 22.369 A 44.18 44.18 0 0 0 9.001 22.652 A 70.301 70.301 0 0 0 8.459 29.168 A 82.435 82.435 0 0 0 8.401 32.302 A 77.626 77.626 0 0 0 8.684 39.054 A 66.293 66.293 0 0 0 9.001 41.952 A 38.081 38.081 0 0 0 9.739 45.965 Q 10.225 47.962 10.909 49.675 A 23.207 23.207 0 0 0 11.001 49.902 A 16.699 16.699 0 0 0 12.483 52.739 A 12.435 12.435 0 0 0 14.701 55.302 A 8.089 8.089 0 0 0 19.264 57.243 A 10.671 10.671 0 0 0 20.401 57.302 A 9.537 9.537 0 0 0 23.25 56.893 A 7.863 7.863 0 0 0 26.101 55.302 A 12.601 12.601 0 0 0 28.515 52.433 A 17.023 17.023 0 0 0 29.801 49.902 Q 31.157 46.608 31.762 42.235 A 44.18 44.18 0 0 0 31.801 41.952 A 70.301 70.301 0 0 0 32.342 35.436 A 82.435 82.435 0 0 0 32.401 32.302 Z M 26.201 31.202 Q 26.201 33.802 24.651 35.702 A 4.928 4.928 0 0 1 21.066 37.585 A 6.244 6.244 0 0 1 20.601 37.602 A 5.762 5.762 0 0 1 18.517 37.238 A 5.168 5.168 0 0 1 16.401 35.702 Q 14.801 33.802 14.801 31.202 Q 14.801 28.602 16.401 26.602 A 5.069 5.069 0 0 1 20.083 24.623 A 6.389 6.389 0 0 1 20.601 24.602 Q 23.101 24.602 24.651 26.602 Q 26.201 28.602 26.201 31.202 Z" vector-effect="non-scaling-stroke"/></g></svg>
