<?xml version="1.0" encoding="UTF-8"?>
<svg xmlns="https://www.w3.org/2000/svg" xmlns:xlink="https://www.w3.org/1999/xlink" version="1.1" width="1000" height="1000" viewBox="0,0,1000,1000">
  <g transform="translate(0,170)">
    <path d="M328,299 C328,281.667,322.833,266.333,312.5,253 C302.167,239.667,288.667,233,272,233 C272,233,272,233,272,233 C254.667,233,240.667,239.667,230,253 C219.333,266.333,214,281.667,214,299 C214,299,214,299,214,299 C214,316.333,219.333,331.333,230,344 C240.667,356.667,254.667,363,272,363 C272,363,272,363,272,363 C288.667,363,302.167,356.667,312.5,344 C322.833,331.333,328,316.333,328,299 C328,299,328,299,328,299Z M66,310 C66,414,83.833,493.833,119.5,549.5 C155.167,605.167,205.333,633,270,633 C270,633,270,633,270,633 C335.333,633,385.667,605.167,421,549.5 C456.333,493.833,474,414,474,310 C474,310,474,310,474,310 C474,206,456.333,126.167,421,70.5 C385.667,14.833,335.333,-13,270,-13 C270,-13,270,-13,270,-13 C205.333,-13,155.167,14.833,119.5,70.5 C83.833,126.167,66,206,66,310 C66,310,66,310,66,310Z M390,310 C390,344,388,376.167,384,406.5 C380,436.833,373.333,463.333,364,486 C354.667,508.667,342.333,526.667,327,540 C311.667,553.333,292.667,560,270,560 C270,560,270,560,270,560 C247.333,560,228.333,553.333,213,540 C197.667,526.667,185.333,508.667,176,486 C166.667,463.333,160,436.833,156,406.5 C152,376.167,150,344,150,310 C150,310,150,310,150,310 C150,276,152,243.833,156,213.5 C160,183.167,166.667,156.667,176,134 C185.333,111.333,197.667,93.333,213,80 C228.333,66.667,247.333,60,270,60 C270,60,270,60,270,60 C292.667,60,311.667,66.667,327,80 C342.333,93.333,354.667,111.333,364,134 C373.333,156.667,380,183.167,384,213.5 C388,243.833,390,276,390,310 C390,310,390,310,390,310Z"></path>
  </g>
</svg>
