<svg version="1.1" xmlns="https://www.w3.org/2000/svg" xmlns:xlink="https://www.w3.org/1999/xlink" width="1000" height="1000" viewBox="0,0,1000,1000"><g transform="translate(0,170)"><path d="M121,190 C121,190,121,190,121,190 C133.667,186,146.667,181,160,175 C173.333,169,186.167,162.667,198.5,156 C210.833,149.333,222.167,142.5,232.5,135.5 C242.833,128.5,251.667,121.667,259,115 C259,115,259,549,259,549 C259,549,125,549,125,549 C125,549,125,619,125,619 C125,619,458,619,458,619 C458,619,458,549,458,549 C458,549,341,549,341,549 C341,549,341,0,341,0 C341,0,283,0,283,0 C283,0,283,0,283,0 C255.667,31.333,226,57.167,194,77.5 C162,97.833,129,114.667,95,128 C95,128,121,190,121,190Z"/></g></svg>