<svg width="36.3" height="61.9" viewBox="0 0 36.3 61.9" xmlns="http://www.w3.org/2000/svg"><g id="svgGroup" stroke-linecap="round" fill-rule="evenodd" font-size="9pt" stroke="#000" stroke-width="0.25mm" fill="#000" style="stroke:#000;stroke-width:0.25mm;fill:#000"><path d="M 2.6 19 L 0 12.8 Q 5.1 10.8 9.9 7.75 A 39.796 39.796 0 0 0 16.973 1.977 A 46.362 46.362 0 0 0 18.8 0 L 24.6 0 L 24.6 54.9 L 36.3 54.9 L 36.3 61.9 L 3 61.9 L 3 54.9 L 16.4 54.9 L 16.4 11.5 Q 15.3 12.5 13.75 13.55 A 37.324 37.324 0 0 1 11.695 14.843 A 44.429 44.429 0 0 1 10.35 15.6 Q 8.5 16.6 6.5 17.5 A 37.169 37.169 0 0 1 3.616 18.66 A 32.201 32.201 0 0 1 2.6 19 Z" vector-effect="non-scaling-stroke"/></g></svg>
