<svg version="1.1" xmlns="https://www.w3.org/2000/svg" xmlns:xlink="https://www.w3.org/1999/xlink" width="1000" height="1000" viewBox="0,0,1000,1000"><g transform="translate(0,170)"><path d="M440,172 C440,116.667,424.5,74.167,393.5,44.5 C362.5,14.833,314.667,0,250,0 C250,0,250,0,250,0 C228.667,0,208.667,2.667,190,8 C171.333,13.333,154.5,19.833,139.5,27.5 C124.5,35.167,111.667,43.333,101,52 C90.333,60.667,82.333,68,77,74 C77,74,118,132,118,132 C118,132,118,132,118,132 C122,128,128,122.833,136,116.5 C144,110.167,153.5,103.667,164.5,97 C175.5,90.333,188.167,84.667,202.5,80 C216.833,75.333,232.667,73,250,73 C250,73,250,73,250,73 C264.667,73,278.333,75,291,79 C303.667,83,314.833,89.167,324.5,97.5 C334.167,105.833,341.833,116.333,347.5,129 C353.167,141.667,356,157,356,175 C356,175,356,175,356,175 C356,191,352.833,206.5,346.5,221.5 C340.167,236.5,331.833,251,321.5,265 C311.167,279,299.167,293,285.5,307 C271.833,321,257.667,335.333,243,350 C243,350,243,350,243,350 C225,368,206.833,386.5,188.5,405.5 C170.167,424.5,153.667,444.667,139,466 C124.333,487.333,112.333,510,103,534 C93.667,558,89,584,89,612 C89,612,89,612,89,612 C89,615.333,89,618.833,89,622.5 C89,626.167,89.333,629.667,90,633 C90,633,465,633,465,633 C465,633,465,563,465,563 C465,563,180,563,180,563 C180,563,180,563,180,563 C180,553,184,541,192,527 C200,513,210,498.667,222,484 C234,469.333,246.667,455,260,441 C273.333,427,285,415,295,405 C295,405,295,405,295,405 C313,387,330.667,368.667,348,350 C365.333,331.333,380.833,312.333,394.5,293 C408.167,273.667,419.167,254,427.5,234 C435.833,214,440,193.333,440,172 C440,172,440,172,440,172Z"/></g></svg>