<svg width="38.8" height="63.301" viewBox="0 0 38.8 63.301" xmlns="http://www.w3.org/2000/svg"><g id="svgGroup" stroke-linecap="round" fill-rule="evenodd" font-size="9pt" stroke="#000" stroke-width="0.25mm" fill="#000" style="stroke:#000;stroke-width:0.25mm;fill:#000"><path d="M 10.3 56.301 L 38.8 56.301 L 38.8 63.301 L 1.3 63.301 Q 1.2 62.801 1.2 62.251 L 1.2 61.201 A 22.168 22.168 0 0 1 1.892 55.591 A 19.837 19.837 0 0 1 2.6 53.401 Q 4 49.801 6.2 46.601 Q 8.4 43.401 11.15 40.551 Q 13.9 37.701 16.6 35.001 A 504.92 504.92 0 0 0 20.593 30.963 A 462.386 462.386 0 0 0 20.85 30.701 A 42.835 42.835 0 0 0 23.325 27.944 A 35.933 35.933 0 0 0 24.45 26.501 A 21.499 21.499 0 0 0 26.687 22.746 A 19.684 19.684 0 0 0 26.95 22.151 Q 27.9 19.901 27.9 17.501 A 14.344 14.344 0 0 0 27.76 15.439 Q 27.555 14.029 27.05 12.901 A 9.287 9.287 0 0 0 25.676 10.687 A 8.316 8.316 0 0 0 24.75 9.751 Q 23.3 8.501 21.4 7.901 Q 19.5 7.301 17.3 7.301 A 16.808 16.808 0 0 0 14.517 7.522 A 13.632 13.632 0 0 0 12.55 8.001 A 20.22 20.22 0 0 0 10.319 8.869 A 15.927 15.927 0 0 0 8.75 9.701 Q 7.21 10.634 6.061 11.524 A 20.008 20.008 0 0 0 5.9 11.651 Q 4.7 12.601 4.1 13.201 L 0 7.401 A 11.869 11.869 0 0 1 0.578 6.799 Q 1.198 6.193 2.098 5.448 A 41.162 41.162 0 0 1 2.4 5.201 Q 4 3.901 6.25 2.751 A 25.811 25.811 0 0 1 9.277 1.45 A 32.007 32.007 0 0 1 11.3 0.801 A 21.072 21.072 0 0 1 15.919 0.039 A 24.596 24.596 0 0 1 17.3 0.001 Q 27 0.001 31.65 4.451 A 14.394 14.394 0 0 1 35.576 11.251 Q 36.3 13.926 36.3 17.201 Q 36.3 20.401 35.05 23.401 A 29.772 29.772 0 0 1 32.609 28.027 A 34.276 34.276 0 0 1 31.75 29.301 A 54.473 54.473 0 0 1 27.82 34.211 A 60.969 60.969 0 0 1 27.1 35.001 Q 24.5 37.801 21.8 40.501 Q 20.769 41.532 19.501 42.847 A 285.773 285.773 0 0 0 18.3 44.101 Q 16.3 46.201 14.5 48.401 A 35.157 35.157 0 0 0 12.665 50.844 A 27.576 27.576 0 0 0 11.5 52.701 Q 10.303 54.795 10.3 56.292 A 3.757 3.757 0 0 0 10.3 56.301 Z" vector-effect="non-scaling-stroke"/></g></svg>
