<svg width="38.3" height="64.6" viewBox="0 0 38.3 64.6" xmlns="http://www.w3.org/2000/svg"><g id="svgGroup" stroke-linecap="round" fill-rule="evenodd" font-size="9pt" stroke="#000" stroke-width="0.25mm" fill="#000" style="stroke:#000;stroke-width:0.25mm;fill:#000"><path d="M 13.2 33.7 L 11.1 33.7 L 11.1 27 L 14 27 A 23.602 23.602 0 0 0 17.665 26.705 A 26.93 26.93 0 0 0 18.55 26.55 A 13.388 13.388 0 0 0 22.605 25.091 A 12.712 12.712 0 0 0 22.85 24.95 Q 24.8 23.8 26 21.8 Q 27.048 20.054 27.181 17.47 A 14.973 14.973 0 0 0 27.2 16.7 A 12.905 12.905 0 0 0 26.937 13.998 Q 26.593 12.394 25.8 11.211 A 6.49 6.49 0 0 0 24.05 9.45 A 12.38 12.38 0 0 0 17.987 7.353 A 15.511 15.511 0 0 0 16.7 7.3 Q 13.053 7.3 10.34 8.2 A 13.46 13.46 0 0 0 9.4 8.55 A 41.214 41.214 0 0 0 7.128 9.574 Q 6.069 10.093 5.177 10.619 A 21.297 21.297 0 0 0 4.4 11.1 L 1.2 4.8 A 16.269 16.269 0 0 1 2.722 3.848 Q 4.36 2.934 6.748 1.968 A 60.952 60.952 0 0 1 7.55 1.65 A 24.344 24.344 0 0 1 13.842 0.161 A 30.18 30.18 0 0 1 17 0 A 33.583 33.583 0 0 1 20.75 0.198 Q 22.669 0.414 24.313 0.866 A 18.263 18.263 0 0 1 25.4 1.2 Q 28.9 2.4 31.15 4.6 Q 33.4 6.8 34.5 9.75 A 17.588 17.588 0 0 1 35.531 14.485 A 21.043 21.043 0 0 1 35.6 16.2 A 15.647 15.647 0 0 1 35.094 20.267 A 12.293 12.293 0 0 1 33.05 24.5 Q 30.5 27.9 26.5 29.7 A 17.026 17.026 0 0 1 34.301 34.594 A 20.632 20.632 0 0 1 34.8 35.15 Q 38.215 39.101 38.298 45.575 A 25.285 25.285 0 0 1 38.3 45.9 A 20.879 20.879 0 0 1 37.556 51.535 A 18.957 18.957 0 0 1 36.95 53.35 Q 35.6 56.8 32.85 59.3 A 16.647 16.647 0 0 1 29.278 61.75 A 22.996 22.996 0 0 1 25.75 63.2 A 27.207 27.207 0 0 1 21.389 64.193 Q 19.323 64.498 16.987 64.575 A 48.64 48.64 0 0 1 15.4 64.6 A 33.065 33.065 0 0 1 11.336 64.342 A 37.035 37.035 0 0 1 10.65 64.25 A 43.832 43.832 0 0 1 7.724 63.735 A 35.988 35.988 0 0 1 6.1 63.35 A 71.175 71.175 0 0 1 4.171 62.817 Q 3.201 62.534 2.35 62.25 Q 0.7 61.7 0 61.4 L 1.6 54.3 A 15.788 15.788 0 0 0 2.519 54.719 Q 4.075 55.375 6.7 56.2 Q 10.2 57.3 15.3 57.3 Q 22.371 57.3 25.797 54.776 A 8.18 8.18 0 0 0 26.55 54.15 A 10.44 10.44 0 0 0 29.74 47.916 A 14.765 14.765 0 0 0 29.9 45.7 A 13.672 13.672 0 0 0 29.673 43.142 Q 29.379 41.596 28.701 40.35 A 8.283 8.283 0 0 0 28.5 40 Q 27.1 37.7 24.8 36.3 Q 22.5 34.9 19.5 34.3 A 31.492 31.492 0 0 0 14.224 33.715 A 35.544 35.544 0 0 0 13.2 33.7 Z" vector-effect="non-scaling-stroke"/></g></svg>
