<svg version="1.1" xmlns="https://www.w3.org/2000/svg" xmlns:xlink="https://www.w3.org/1999/xlink" width="1000" height="1000" viewBox="0,0,1000,1000"><g transform="translate(0,170)"><path d="M232,560 C198,560,169.333,556.333,146,549 C122.667,541.667,105.667,535.333,95,530 C95,530,79,601,79,601 C79,601,79,601,79,601 C83.667,603,91.5,605.833,102.5,609.5 C113.5,613.167,126,616.833,140,620.5 C154,624.167,169.167,627.167,185.5,629.5 C201.833,631.833,217.667,633,233,633 C233,633,233,633,233,633 C273,633,307.5,628.333,336.5,619 C365.5,609.667,389.167,596.667,407.5,580 C425.833,563.333,439.5,543.5,448.5,520.5 C457.5,497.5,462,472.667,462,446 C462,446,462,446,462,446 C462,401.333,450.333,365.5,427,338.5 C403.667,311.5,376,293.333,344,284 C344,284,344,284,344,284 C370.667,272,392.5,254.667,409.5,232 C426.5,209.333,435,181.667,435,149 C435,149,435,149,435,149 C435,125.667,431.333,104.167,424,84.5 C416.667,64.833,405.5,47.667,390.5,33 C375.5,18.333,356.333,7,333,-1 C309.667,-9,281.667,-13,249,-13 C249,-13,249,-13,249,-13 C214.333,-13,182.833,-7.5,154.5,3.5 C126.167,14.5,105,25,91,35 C91,35,123,98,123,98 C123,98,123,98,123,98 C136.333,89.333,153,80.833,173,72.5 C193,64.167,217.333,60,246,60 C246,60,246,60,246,60 C274,60,298.5,67.167,319.5,81.5 C340.5,95.833,351,120,351,154 C351,154,351,154,351,154 C351,174.667,347,191.667,339,205 C331,218.333,320.5,228.833,307.5,236.5 C294.5,244.167,280.167,249.5,264.5,252.5 C248.833,255.5,233.667,257,219,257 C219,257,190,257,190,257 C190,257,190,324,190,324 C190,324,211,324,211,324 C211,324,211,324,211,324 C233,324,254,326,274,330 C294,334,311.667,340.667,327,350 C342.333,359.333,354.667,371.667,364,387 C373.333,402.333,378,421.333,378,444 C378,444,378,444,378,444 C378,479.333,366.833,507.5,344.5,528.5 C322.167,549.5,284.667,560,232,560 C232,560,232,560,232,560Z"/></g></svg>