<svg width="43" height="61.9" viewBox="0 0 43 61.9" xmlns="http://www.w3.org/2000/svg"><g id="svgGroup" stroke-linecap="round" fill-rule="evenodd" font-size="9pt" stroke="#000" stroke-width="0.25mm" fill="#000" style="stroke:#000;stroke-width:0.25mm;fill:#000"><path d="M 0 46.1 L 0 40.5 A 67.733 67.733 0 0 1 1.451 37.331 Q 2.806 34.55 4.65 31.3 A 167.205 167.205 0 0 1 9.061 23.985 A 196.898 196.898 0 0 1 11.3 20.55 Q 15 15 19.2 9.65 A 114.532 114.532 0 0 1 24.489 3.373 A 96.813 96.813 0 0 1 27.7 0 L 35.7 0 L 35.7 39.3 L 43 39.3 L 43 46.1 L 35.7 46.1 L 35.7 61.9 L 27.7 61.9 L 27.7 46.1 L 0 46.1 Z M 27.7 39.3 L 27.7 9.8 A 94.25 94.25 0 0 0 24.305 13.659 A 112.168 112.168 0 0 0 22.25 16.2 Q 19.5 19.7 16.9 23.55 Q 14.3 27.4 12.05 31.4 Q 9.8 35.4 8 39.3 L 27.7 39.3 Z" vector-effect="non-scaling-stroke"/></g></svg>
