<svg version="1.1" xmlns="https://www.w3.org/2000/svg" xmlns:xlink="https://www.w3.org/1999/xlink" width="1000" height="1000" viewBox="0,0,1000,1000"><g transform="translate(0,170)"><path d="M56,461 C56,461,333,461,333,461 C333,461,333,619,333,619 C333,619,413,619,413,619 C413,619,413,461,413,461 C413,461,486,461,486,461 C486,461,486,393,486,393 C486,393,413,393,413,393 C413,393,413,0,413,0 C413,0,333,0,333,0 C333,0,333,0,333,0 C304.333,28.667,276,60.833,248,96.5 C220,132.167,193.667,168.5,169,205.5 C144.333,242.5,122.167,278.333,102.5,313 C82.833,347.667,67.333,378.333,56,405 C56,405,56,461,56,461Z M333,393 C333,393,136,393,136,393 C136,393,136,393,136,393 C148,367,161.5,340.667,176.5,314 C191.5,287.333,207.667,261.167,225,235.5 C242.333,209.833,260.167,185.333,278.5,162 C296.833,138.667,315,117.333,333,98 C333,98,333,393,333,393Z"/></g></svg>