<svg width="37.6" height="63.2" viewBox="0 0 37.6 63.2" xmlns="http://www.w3.org/2000/svg"><g id="svgGroup" stroke-linecap="round" fill-rule="evenodd" font-size="9pt" stroke="#000" stroke-width="0.25mm" fill="#000" style="stroke:#000;stroke-width:0.25mm;fill:#000"><path d="M 0 60 L 1.6 52.9 A 18.102 18.102 0 0 0 2.638 53.374 Q 4.142 54.009 6.55 54.8 A 19.508 19.508 0 0 0 9.434 55.492 Q 11.892 55.9 15 55.9 A 29.521 29.521 0 0 0 17.817 55.773 Q 19.189 55.642 20.363 55.372 A 14.424 14.424 0 0 0 21.7 55 A 14.333 14.333 0 0 0 23.826 54.107 Q 24.989 53.497 25.871 52.714 A 8.695 8.695 0 0 0 26.05 52.55 A 9.468 9.468 0 0 0 28.137 49.734 A 9.023 9.023 0 0 0 28.45 49 Q 29.2 47 29.2 44.8 Q 29.2 41.4 28.05 38.75 A 9.277 9.277 0 0 0 25.611 35.46 A 12.332 12.332 0 0 0 24.05 34.3 Q 21.979 32.992 18.8 32.133 A 35.275 35.275 0 0 0 16.25 31.55 Q 12.658 30.861 7.723 30.671 A 102.616 102.616 0 0 0 3.8 30.6 Q 4.4 26.2 4.75 22.35 A 338.865 338.865 0 0 0 5.334 15.078 A 311.922 311.922 0 0 0 5.35 14.85 Q 5.6 11.2 5.75 7.6 Q 5.9 4 6.1 0 L 35.9 0 L 35.9 7 L 13.3 7 Q 13.211 8.252 13.081 10.185 A 1435.652 1435.652 0 0 0 13.05 10.65 Q 12.9 12.9 12.7 15.4 Q 12.5 17.9 12.3 20.2 Q 12.121 22.257 12.022 23.595 A 122.233 122.233 0 0 0 12 23.9 A 55.397 55.397 0 0 1 18.96 24.569 Q 27.116 25.919 31.5 29.8 Q 37.6 35.2 37.6 44.3 Q 37.6 48.4 36.3 51.9 Q 35 55.4 32.25 57.9 A 17.07 17.07 0 0 1 28.512 60.452 A 22.883 22.883 0 0 1 25.25 61.8 A 26.191 26.191 0 0 1 20.925 62.805 Q 18.777 63.126 16.34 63.186 A 46.174 46.174 0 0 1 15.2 63.2 Q 12.8 63.2 10.45 62.85 A 54.887 54.887 0 0 1 7.133 62.255 A 47.518 47.518 0 0 1 6 62 A 48.876 48.876 0 0 1 4.258 61.553 Q 3.2 61.259 2.3 60.95 Q 1.036 60.516 0.334 60.175 A 5.644 5.644 0 0 1 0 60 Z" vector-effect="non-scaling-stroke"/></g></svg>
