<svg version="1.1" xmlns="https://www.w3.org/2000/svg" xmlns:xlink="https://www.w3.org/1999/xlink" width="1000" height="1000" viewBox="0,0,1000,1000"><g transform="translate(0,170)"><path d="M206,226 C206.667,216.667,207.667,204.333,209,189 C210.333,173.667,211.667,157.667,213,141 C214.333,124.333,215.5,108.5,216.5,93.5 C217.5,78.5,218.333,66.333,219,57 C219,57,445,57,445,57 C445,57,445,-13,445,-13 C445,-13,147,-13,147,-13 C147,-13,147,-13,147,-13 C145.667,13.667,144.5,39,143.5,63 C142.5,87,141.167,111.167,139.5,135.5 C137.833,159.833,135.833,184.833,133.5,210.5 C131.167,236.167,128,263.667,124,293 C124,293,124,293,124,293 C174,293,215.5,296.167,248.5,302.5 C281.5,308.833,307.5,318,326.5,330 C345.5,342,358.833,356.833,366.5,374.5 C374.167,392.167,378,412.333,378,435 C378,435,378,435,378,435 C378,449.667,375.5,463.667,370.5,477 C365.5,490.333,357.5,502.167,346.5,512.5 C335.5,522.833,321,531,303,537 C285,543,262.667,546,236,546 C236,546,236,546,236,546 C202,546,173.833,542.333,151.5,535 C129.167,527.667,112.667,521.333,102,516 C102,516,86,587,86,587 C86,587,86,587,86,587 C90.667,589.667,98.333,592.833,109,596.5 C119.667,600.167,132,603.667,146,607 C160,610.333,174.833,613.167,190.5,615.5 C206.167,617.833,222,619,238,619 C238,619,238,619,238,619 C276.667,619,310.167,614.333,338.5,605 C366.833,595.667,390.167,582.667,408.5,566 C426.833,549.333,440.333,529.333,449,506 C457.667,482.667,462,457.333,462,430 C462,430,462,430,462,430 C462,369.333,441.667,321,401,285 C360.333,249,295.333,229.333,206,226 C206,226,206,226,206,226Z"/></g></svg>