<svg version="1.1" xmlns="https://www.w3.org/2000/svg" xmlns:xlink="https://www.w3.org/1999/xlink" width="1000" height="1000" viewBox="0,0,1000,1000"><g transform="translate(0,170)"><path d="M74,361 C74,443,91,507,125,553 C159,599,210.333,622,279,622 C279,622,279,622,279,622 C312.333,622,341,615.833,365,603.5 C389,591.167,408.667,575.167,424,555.5 C439.333,535.833,450.667,514.167,458,490.5 C465.333,466.833,469,443.667,469,421 C469,421,469,421,469,421 C469,396.333,465.667,372.333,459,349 C452.333,325.667,441.667,305.167,427,287.5 C412.333,269.833,392.833,255.667,368.5,245 C344.167,234.333,314.667,229,280,229 C280,229,280,229,280,229 C258.667,229,238.5,231.333,219.5,236 C200.5,240.667,183,246.667,167,254 C167,254,167,254,167,254 C175,218,186.667,187.667,202,163 C217.333,138.333,236.333,118.167,259,102.5 C281.667,86.833,307.5,75.5,336.5,68.5 C365.5,61.5,397.667,57.667,433,57 C433,57,426,-13,426,-13 C426,-13,426,-13,426,-13 C371.333,-12.333,322.333,-3.667,279,13 C235.667,29.667,198.833,53.667,168.5,85 C138.167,116.333,114.833,155.167,98.5,201.5 C82.167,247.833,74,301,74,361 C74,361,74,361,74,361Z M271,297 C310.333,297,339.167,307.667,357.5,329 C375.833,350.333,385,381.333,385,422 C385,422,385,422,385,422 C385,436,383.167,450.833,379.5,466.5 C375.833,482.167,369.667,496.333,361,509 C352.333,521.667,341.333,532.167,328,540.5 C314.667,548.833,298,553,278,553 C278,553,278,553,278,553 C254,553,234.333,547.833,219,537.5 C203.667,527.167,191.5,513.167,182.5,495.5 C173.5,477.833,167.167,457.5,163.5,434.5 C159.833,411.5,158,387,158,361 C158,361,158,361,158,361 C158,353.667,158,346.833,158,340.5 C158,334.167,158.333,327.667,159,321 C159,321,159,321,159,321 C177,313,194.833,307,212.5,303 C230.167,299,249.667,297,271,297 C271,297,271,297,271,297Z"/></g></svg>