<svg width="39.5" height="63.501" viewBox="0 0 39.5 63.501" xmlns="http://www.w3.org/2000/svg"><g id="svgGroup" stroke-linecap="round" fill-rule="evenodd" font-size="9pt" stroke="#000" stroke-width="0.25mm" fill="#000" style="stroke:#000;stroke-width:0.25mm;fill:#000"><path d="M 35.2 0 L 35.9 7 Q 30.6 7.1 26.25 8.15 A 23.765 23.765 0 0 0 20.488 10.331 A 21.43 21.43 0 0 0 18.5 11.55 A 20.207 20.207 0 0 0 12.836 17.542 A 23.002 23.002 0 0 0 12.8 17.6 Q 10.644 21.069 9.455 26.032 A 41.415 41.415 0 0 0 9.3 26.7 A 28.127 28.127 0 0 1 12.983 25.325 A 33.096 33.096 0 0 1 14.55 24.9 A 24.644 24.644 0 0 1 19.364 24.227 A 28.352 28.352 0 0 1 20.6 24.2 A 28.221 28.221 0 0 1 24.57 24.464 Q 26.679 24.764 28.458 25.405 A 15.843 15.843 0 0 1 29.45 25.8 Q 33.1 27.4 35.3 30.05 A 16.62 16.62 0 0 1 38.437 35.982 A 18.981 18.981 0 0 1 38.5 36.2 Q 39.5 39.7 39.5 43.4 A 22.784 22.784 0 0 1 38.788 48.969 A 26.482 26.482 0 0 1 38.4 50.35 Q 37.3 53.9 35 56.85 A 17.19 17.19 0 0 1 29.987 61.166 A 20.228 20.228 0 0 1 29.1 61.65 A 16.203 16.203 0 0 1 24.607 63.146 A 22.637 22.637 0 0 1 20.5 63.5 A 24.305 24.305 0 0 1 14.301 62.757 A 16.222 16.222 0 0 1 5.1 56.6 A 23.627 23.627 0 0 1 1.528 49.247 Q 0.573 46.051 0.215 42.222 A 51.821 51.821 0 0 1 0 37.4 A 56.504 56.504 0 0 1 0.539 29.413 A 41.606 41.606 0 0 1 2.45 21.45 A 34.372 34.372 0 0 1 5.871 14.343 A 28.797 28.797 0 0 1 9.45 9.8 A 30.049 30.049 0 0 1 19.695 2.921 A 34.752 34.752 0 0 1 20.5 2.6 A 38.305 38.305 0 0 1 29.054 0.444 A 49.49 49.49 0 0 1 35.2 0 Z M 19.7 31 Q 16.5 31 13.85 31.6 A 28.195 28.195 0 0 0 9.512 32.971 A 32.182 32.182 0 0 0 8.5 33.4 A 19.649 19.649 0 0 0 8.4 35.291 A 18.105 18.105 0 0 0 8.4 35.35 L 8.4 37.4 A 49.253 49.253 0 0 0 8.654 42.494 A 41.798 41.798 0 0 0 8.95 44.75 A 23.018 23.018 0 0 0 9.761 48.19 A 18.044 18.044 0 0 0 10.85 50.85 Q 12.2 53.5 14.5 55.05 A 8.623 8.623 0 0 0 17.311 56.259 Q 18.45 56.536 19.778 56.588 A 15.949 15.949 0 0 0 20.4 56.6 A 11.915 11.915 0 0 0 22.592 56.409 Q 23.908 56.163 24.97 55.598 A 7.099 7.099 0 0 0 25.4 55.35 Q 27.4 54.1 28.7 52.2 Q 30 50.3 30.55 47.95 A 21.312 21.312 0 0 0 31.01 45.248 A 17.306 17.306 0 0 0 31.1 43.5 Q 31.1 37.4 28.35 34.2 A 8.501 8.501 0 0 0 24.539 31.703 Q 23.122 31.222 21.381 31.07 A 19.325 19.325 0 0 0 19.7 31 Z" vector-effect="non-scaling-stroke"/></g></svg>
