<svg width="39.2" height="61.9" viewBox="0 0 39.2 61.9" xmlns="http://www.w3.org/2000/svg"><g id="svgGroup" stroke-linecap="round" fill-rule="evenodd" font-size="9pt" stroke="#000" stroke-width="0.25mm" fill="#000" style="stroke:#000;stroke-width:0.25mm;fill:#000"><path d="M 17.7 61.9 L 9.2 61.9 A 77.572 77.572 0 0 1 10.425 52.723 A 96.273 96.273 0 0 1 11.75 46.85 Q 13.8 38.9 16.7 31.45 A 119.786 119.786 0 0 1 21.179 21.309 A 103.548 103.548 0 0 1 23.1 17.65 Q 25.951 12.478 28.735 8.799 A 45.815 45.815 0 0 1 30 7.2 L 0 7.2 L 0 0 L 39.2 0 L 39.2 6.9 Q 37.025 9.437 34.588 13.235 A 102.688 102.688 0 0 0 32.7 16.3 A 103.84 103.84 0 0 0 28.667 23.817 A 130.678 130.678 0 0 0 26.05 29.55 A 119.47 119.47 0 0 0 21.492 42.154 A 135.009 135.009 0 0 0 20.6 45.25 Q 18.3 53.6 17.7 61.9 Z" vector-effect="non-scaling-stroke"/></g></svg>
