<svg version="1.1" xmlns="https://www.w3.org/2000/svg" xmlns:xlink="https://www.w3.org/1999/xlink" width="1000" height="1000" viewBox="0,0,1000,1000"><g transform="translate(0,170)"><path d="M260,619 C260,619,260,619,260,619 C264,563.667,273.667,508.167,289,452.5 C304.333,396.833,322.5,344.5,343.5,295.5 C364.5,246.5,386.667,202.333,410,163 C433.333,123.667,455,92.333,475,69 C475,69,475,0,475,0 C475,0,83,0,83,0 C83,0,83,72,83,72 C83,72,383,72,383,72 C383,72,383,72,383,72 C360.333,99.333,337.333,134.167,314,176.5 C290.667,218.833,269.333,264.833,250,314.5 C230.667,364.167,214.167,415.5,200.5,468.5 C186.833,521.5,178.333,571.667,175,619 C175,619,260,619,260,619Z"/></g></svg>