<svg version="1.1" xmlns="https://www.w3.org/2000/svg" xmlns:xlink="https://www.w3.org/1999/xlink" width="1000" height="1000" viewBox="0,0,1000,1000"><g transform="translate(0,170)"><path d="M469,459 C469,386.333,434.667,333.667,366,301 C366,301,366,301,366,301 C389.333,285.667,410,265.167,428,239.5 C446,213.833,455,183.333,455,148 C455,148,455,148,455,148 C455,130,451.667,111.5,445,92.5 C438.333,73.5,427.667,56.167,413,40.5 C398.333,24.833,379.167,12,355.5,2 C331.833,-8,303.333,-13,270,-13 C270,-13,270,-13,270,-13 C241.333,-13,215.5,-8.333,192.5,1 C169.5,10.333,150,22.667,134,38 C118,53.333,105.667,71.333,97,92 C88.333,112.667,84,134.333,84,157 C84,157,84,157,84,157 C84,223,112.333,272,169,304 C169,304,169,304,169,304 C142.333,320.667,119.333,342.667,100,370 C80.667,397.333,71,428.667,71,464 C71,464,71,464,71,464 C71,483.333,74.167,503,80.5,523 C86.833,543,97.5,561.167,112.5,577.5 C127.5,593.833,147.667,607.167,173,617.5 C198.333,627.833,230.333,633,269,633 C269,633,269,633,269,633 C336.333,633,386.5,617,419.5,585 C452.5,553,469,511,469,459 C469,459,469,459,469,459Z M151,465 C151,434.333,158.333,408,173,386 C187.667,364,208.333,345.667,235,331 C235,331,235,331,235,331 C283,341.667,320.667,357.167,348,377.5 C375.333,397.833,389,427,389,465 C389,465,389,465,389,465 C389,477,386.667,489,382,501 C377.333,513,370.167,523.833,360.5,533.5 C350.833,543.167,338.5,550.833,323.5,556.5 C308.5,562.167,290.667,565,270,565 C270,565,270,565,270,565 C248,565,229.333,561.833,214,555.5 C198.667,549.167,186.333,541,177,531 C167.667,521,161,510.167,157,498.5 C153,486.833,151,475.667,151,465 C151,465,151,465,151,465Z M375,148 C375,180,367.5,206,352.5,226 C337.5,246,317.333,263.333,292,278 C292,278,292,278,292,278 C246.667,267.333,214.167,250.167,194.5,226.5 C174.833,202.833,165,177.333,165,150 C165,150,165,150,165,150 C165,139.333,166.833,128.5,170.5,117.5 C174.167,106.5,180.333,96.5,189,87.5 C197.667,78.5,208.5,71,221.5,65 C234.5,59,250.667,56,270,56 C270,56,270,56,270,56 C288.667,56,304.667,59.167,318,65.5 C331.333,71.833,342.167,79.5,350.5,88.5 C358.833,97.5,365,107.5,369,118.5 C373,129.5,375,139.333,375,148 C375,148,375,148,375,148Z"/></g></svg>