<svg width="39.802" height="64.6" viewBox="0 0 39.802 64.6" xmlns="http://www.w3.org/2000/svg"><g id="svgGroup" stroke-linecap="round" fill-rule="evenodd" font-size="9pt" stroke="#000" stroke-width="0.25mm" fill="#000" style="stroke:#000;stroke-width:0.25mm;fill:#000"><path d="M 38.999 52.991 A 19.951 19.951 0 0 0 39.801 47.2 Q 39.801 36.3 29.501 31.4 Q 33.001 29.1 35.701 25.25 A 14.382 14.382 0 0 0 37.767 20.894 A 17.457 17.457 0 0 0 38.401 16.1 Q 38.401 13.4 37.401 10.55 A 13.999 13.999 0 0 0 36.945 9.413 A 14.95 14.95 0 0 0 34.201 5.35 A 14.634 14.634 0 0 0 31.482 3.093 A 19.358 19.358 0 0 0 28.451 1.5 Q 24.928 0.012 19.979 0 A 33.203 33.203 0 0 0 19.901 0 A 23.948 23.948 0 0 0 17.045 0.165 A 18.972 18.972 0 0 0 12.151 1.4 A 21.138 21.138 0 0 0 10.392 2.207 A 17.442 17.442 0 0 0 6.301 5.1 Q 3.901 7.4 2.601 10.5 Q 1.301 13.6 1.301 17 A 21.413 21.413 0 0 0 1.384 18.907 Q 1.819 23.778 4.539 27.278 A 17.351 17.351 0 0 0 9.801 31.7 A 22.884 22.884 0 0 0 8.339 32.694 A 24.425 24.425 0 0 0 2.901 38.3 A 15.632 15.632 0 0 0 1.22 41.331 A 16.422 16.422 0 0 0 0.001 47.7 A 17.989 17.989 0 0 0 0.061 49.162 A 20.084 20.084 0 0 0 0.951 53.6 A 13.999 13.999 0 0 0 1.217 54.364 A 14.578 14.578 0 0 0 4.151 59.05 A 12.667 12.667 0 0 0 4.19 59.093 Q 6.434 61.514 10.201 63.05 Q 14.001 64.6 19.801 64.6 A 36.257 36.257 0 0 0 23.771 64.393 Q 26.695 64.071 29.079 63.245 A 15.379 15.379 0 0 0 34.851 59.8 A 15.634 15.634 0 0 0 38.999 52.991 Z M 8.001 47.8 Q 8.001 49.4 8.601 51.15 A 8.738 8.738 0 0 0 10.027 53.732 A 10.542 10.542 0 0 0 10.601 54.4 A 9.206 9.206 0 0 0 12.52 55.951 A 12.478 12.478 0 0 0 14.301 56.85 A 11.706 11.706 0 0 0 16.666 57.53 Q 18.141 57.8 19.901 57.8 Q 22.665 57.8 24.753 57.124 A 10.929 10.929 0 0 0 25.251 56.95 Q 27.501 56.1 28.951 54.65 A 9.511 9.511 0 0 0 30.838 52.008 A 8.989 8.989 0 0 0 31.101 51.4 Q 31.801 49.6 31.801 47.8 A 12.622 12.622 0 0 0 31.271 44.045 A 9.669 9.669 0 0 0 27.701 39.05 A 21.33 21.33 0 0 0 23.858 36.811 Q 20.676 35.35 16.401 34.4 Q 12.401 36.6 10.201 39.9 A 12.978 12.978 0 0 0 8.195 45.183 A 17.074 17.074 0 0 0 8.001 47.8 Z M 30.401 16.1 A 6.786 6.786 0 0 0 30.286 14.896 Q 30.138 14.078 29.801 13.15 Q 29.201 11.5 27.951 10.15 A 9.344 9.344 0 0 0 26.255 8.723 A 12.473 12.473 0 0 0 24.701 7.85 Q 22.701 6.9 19.901 6.9 A 15.544 15.544 0 0 0 17.859 7.027 Q 16.27 7.238 15.051 7.8 A 11.698 11.698 0 0 0 13.066 8.953 A 9.54 9.54 0 0 0 11.801 10.05 A 8.18 8.18 0 0 0 10.343 12.097 A 7.474 7.474 0 0 0 9.951 13.05 A 10.586 10.586 0 0 0 9.44 15.447 A 9.459 9.459 0 0 0 9.401 16.3 A 11.274 11.274 0 0 0 11.311 22.542 A 14.88 14.88 0 0 0 12.351 23.95 A 12.159 12.159 0 0 0 15.489 26.577 Q 18.143 28.169 22.101 29.1 A 22.452 22.452 0 0 0 25.607 26.619 A 17.642 17.642 0 0 0 28.151 23.9 A 10.765 10.765 0 0 0 29.97 19.956 Q 30.347 18.419 30.394 16.62 A 19.862 19.862 0 0 0 30.401 16.1 Z" vector-effect="non-scaling-stroke"/></g></svg>
