<svg width="39.601" height="63.501" viewBox="0 0 39.601 63.501" xmlns="http://www.w3.org/2000/svg"><g id="svgGroup" stroke-linecap="round" fill-rule="evenodd" font-size="9pt" stroke="#000" stroke-width="0.25mm" fill="#000" style="stroke:#000;stroke-width:0.25mm;fill:#000"><path d="M 3.5 63.501 L 3.2 56.501 A 46.213 46.213 0 0 0 10.386 55.975 Q 14.354 55.35 17.595 53.98 A 23.438 23.438 0 0 0 21.25 52.051 A 18.178 18.178 0 0 0 27.284 45.379 Q 28.723 42.753 29.651 39.419 A 38.583 38.583 0 0 0 30.3 36.701 A 25.268 25.268 0 0 1 26.764 38.001 A 30.313 30.313 0 0 1 25 38.451 A 27.378 27.378 0 0 1 19.794 39.088 A 30.9 30.9 0 0 1 18.9 39.101 A 30.246 30.246 0 0 1 15.164 38.883 Q 13.183 38.636 11.51 38.11 A 15.823 15.823 0 0 1 10 37.551 A 16.801 16.801 0 0 1 6.57 35.594 A 13.804 13.804 0 0 1 4.2 33.351 Q 2 30.701 1 27.301 Q 0 23.901 0 20.101 A 22.784 22.784 0 0 1 0.712 14.532 A 26.482 26.482 0 0 1 1.1 13.151 Q 2.2 9.601 4.5 6.701 A 17.781 17.781 0 0 1 9.07 2.665 A 21.217 21.217 0 0 1 10.4 1.901 A 15.91 15.91 0 0 1 14.893 0.365 A 22.057 22.057 0 0 1 19 0.001 A 23.593 23.593 0 0 1 25.289 0.791 A 16.502 16.502 0 0 1 34.4 7.001 A 24.179 24.179 0 0 1 38.132 14.706 Q 39.118 18.075 39.442 22.106 A 51.217 51.217 0 0 1 39.6 26.201 Q 39.6 44.701 30.6 54.051 A 28.435 28.435 0 0 1 18.899 61.234 Q 12.267 63.453 3.5 63.501 Z M 19.8 32.301 A 30.037 30.037 0 0 0 23.601 32.07 A 24.806 24.806 0 0 0 25.75 31.701 Q 28.5 31.101 31.1 30.001 Q 31.2 29.001 31.2 28.101 L 31.2 26.201 A 49.643 49.643 0 0 0 30.916 20.802 A 43.056 43.056 0 0 0 30.65 18.801 A 23.091 23.091 0 0 0 29.915 15.574 A 17.285 17.285 0 0 0 28.75 12.701 Q 27.4 10.101 25.05 8.551 A 8.97 8.97 0 0 0 22.106 7.319 Q 20.731 7.001 19.1 7.001 A 11.915 11.915 0 0 0 16.909 7.192 Q 15.592 7.438 14.53 8.003 A 7.099 7.099 0 0 0 14.1 8.251 Q 12.1 9.501 10.8 11.351 Q 9.5 13.201 8.95 15.501 A 20.251 20.251 0 0 0 8.477 18.298 A 16.978 16.978 0 0 0 8.4 19.901 A 21.632 21.632 0 0 0 8.662 23.385 Q 8.963 25.228 9.612 26.699 A 9.559 9.559 0 0 0 11.15 29.151 Q 13.47 31.809 18.032 32.224 A 19.505 19.505 0 0 0 19.8 32.301 Z" vector-effect="non-scaling-stroke"/></g></svg>
