<svg version="1.1" xmlns="https://www.w3.org/2000/svg" xmlns:xlink="https://www.w3.org/1999/xlink" width="1000" height="1000" viewBox="0,0,1000,1000"><g transform="translate(0,170)"><path d="M467,260 C467,178.667,449.667,114.667,415,68 C380.333,21.333,329,-2,261,-2 C261,-2,261,-2,261,-2 C227.667,-2,199,4.333,175,17 C151,29.667,131.333,45.667,116,65 C100.667,84.333,89.333,105.833,82,129.5 C74.667,153.167,71,176.333,71,199 C71,199,71,199,71,199 C71,224.333,74.333,248.333,81,271 C87.667,293.667,98.333,313.833,113,331.5 C127.667,349.167,147,363.167,171,373.5 C195,383.833,224.667,389,260,389 C260,389,260,389,260,389 C281.333,389,301.667,386.833,321,382.5 C340.333,378.167,358,372.333,374,365 C374,365,374,365,374,365 C359.333,437.667,329.167,488.833,283.5,518.5 C237.833,548.167,177.667,563,103,563 C103,563,106,633,106,633 C106,633,106,633,106,633 C226.667,632.333,317,600.833,377,538.5 C437,476.167,467,383.333,467,260 C467,260,467,260,467,260Z M269,321 C229.667,321,200.833,310.5,182.5,289.5 C164.167,268.5,155,237.667,155,197 C155,197,155,197,155,197 C155,183,156.833,168.333,160.5,153 C164.167,137.667,170.333,123.833,179,111.5 C187.667,99.167,198.667,88.833,212,80.5 C225.333,72.167,242,68,262,68 C262,68,262,68,262,68 C286,68,305.833,73.167,321.5,83.5 C337.167,93.833,349.5,107.667,358.5,125 C367.5,142.333,373.833,162.667,377.5,186 C381.167,209.333,383,234,383,260 C383,260,383,260,383,260 C383,266.667,383,273,383,279 C383,285,382.667,291.333,382,298 C382,298,382,298,382,298 C364.667,305.333,346.833,311,328.5,315 C310.167,319,290.333,321,269,321 C269,321,269,321,269,321Z"/></g></svg>