<svg width="37.4" height="48.6" viewBox="0 0 37.4 48.6" xmlns="http://www.w3.org/2000/svg"><g id="svgGroup" stroke-linecap="round" fill-rule="evenodd" font-size="9pt" stroke="#000" stroke-width="0.25mm" fill="#000" style="stroke:#000;stroke-width:0.25mm;fill:#000"><path d="M 37.4 17.7 L 37.4 46.7 Q 34.806 47.147 30.732 47.755 A 603.101 603.101 0 0 1 29.75 47.9 Q 25 48.6 20 48.6 Q 16.2 48.6 12.6 47.95 A 20.736 20.736 0 0 1 8.607 46.826 A 17.421 17.421 0 0 1 6.2 45.65 Q 3.4 44 1.7 41.1 A 11.562 11.562 0 0 1 0.452 37.915 Q 0 36.02 0 33.7 A 15.249 15.249 0 0 1 0.289 30.656 A 10.875 10.875 0 0 1 1.75 26.95 Q 3.5 24.2 6.25 22.5 A 18.62 18.62 0 0 1 10.617 20.547 A 22.518 22.518 0 0 1 12.55 20.05 Q 16.1 19.3 19.7 19.3 Q 24.6 19.3 29.3 20.4 L 29.3 18.1 Q 29.3 16 28.85 14.05 Q 28.4 12.1 27.15 10.5 A 8.045 8.045 0 0 0 25.021 8.616 A 10.353 10.353 0 0 0 23.75 7.95 A 9.926 9.926 0 0 0 21.797 7.335 Q 20.219 7 18.2 7 A 52.07 52.07 0 0 0 14.708 7.111 Q 12.525 7.258 10.7 7.6 Q 8.063 8.095 6.444 8.589 A 15.901 15.901 0 0 0 5.8 8.8 L 4.8 2 Q 6.5 1.2 10.45 0.6 A 53.109 53.109 0 0 1 16.006 0.065 A 63.57 63.57 0 0 1 18.9 0 A 34.729 34.729 0 0 1 22.568 0.183 Q 24.447 0.383 26.049 0.802 A 17.605 17.605 0 0 1 27.65 1.3 Q 31.2 2.6 33.4 4.9 Q 35.6 7.2 36.5 10.5 A 25.509 25.509 0 0 1 37.294 15.09 A 31.275 31.275 0 0 1 37.4 17.7 Z M 29.3 40.9 L 29.3 27.1 A 17.964 17.964 0 0 0 27.835 26.714 Q 26.751 26.474 25.45 26.3 A 34.674 34.674 0 0 0 21.935 26.019 A 40.138 40.138 0 0 0 20.7 26 Q 18.4 26 16.2 26.35 A 13.81 13.81 0 0 0 13.913 26.908 A 11.075 11.075 0 0 0 12.3 27.6 A 8.454 8.454 0 0 0 9.785 29.596 A 8.122 8.122 0 0 0 9.5 29.95 Q 8.4 31.4 8.4 33.6 A 10.322 10.322 0 0 0 8.642 35.914 Q 9.258 38.592 11.45 39.85 A 11.673 11.673 0 0 0 14.283 40.983 Q 15.666 41.35 17.317 41.498 A 26.576 26.576 0 0 0 19.7 41.6 Q 22.8 41.6 25.25 41.4 Q 27.014 41.256 28.337 41.06 A 25.483 25.483 0 0 0 29.3 40.9 Z" vector-effect="non-scaling-stroke"/></g></svg>
