<svg version="1.1" xmlns="https://www.w3.org/2000/svg" xmlns:xlink="https://www.w3.org/1999/xlink" width="1000" height="1000" viewBox="0,0,1000,1000"><g transform="translate(0,170)"><path d="M511,619 C511,619,511,619,511,619 C499.667,575,487,527.333,473,476 C459,424.667,444.167,372,428.5,318 C412.833,264,396.167,209.833,378.5,155.5 C360.833,101.167,342.333,49.333,323,0 C323,0,221,0,221,0 C221,0,221,0,221,0 C201,49.333,182,101.167,164,155.5 C146,209.833,128.833,264,112.5,318 C96.167,372,81,424.667,67,476 C53,527.333,40.333,575,29,619 C29,619,113,619,113,619 C113,619,149,457,149,457 C149,457,387,457,387,457 C387,457,424,619,424,619 C424,619,511,619,511,619Z M269,72 C284.333,112,300.833,159.833,318.5,215.5 C336.167,271.167,352.667,329,368,389 C368,389,168,389,168,389 C168,389,168,389,168,389 C184,330.333,201,273.333,219,218 C237,162.667,253.667,114,269,72 C269,72,269,72,269,72Z"/></g></svg>