<svg version="1.1" xmlns="https://www.w3.org/2000/svg" xmlns:xlink="https://www.w3.org/1999/xlink" width="1000" height="1000" viewBox="0,0,1000,1000"><g transform="translate(0,170)"><path d="M275,405 C240.333,405,212.833,399.167,192.5,387.5 C172.167,375.833,162,355,162,325 C162,325,162,325,162,325 C162,310.333,165.667,298.167,173,288.5 C180.333,278.833,189.667,271,201,265 C212.333,259,225.333,254.833,240,252.5 C254.667,250.167,269.667,249,285,249 C285,249,285,249,285,249 C301.667,249,317.5,250,332.5,252 C347.5,254,360.333,256.667,371,260 C371,260,371,398,371,398 C371,398,371,398,371,398 C360.333,400,346.833,401.667,330.5,403 C314.167,404.333,295.667,405,275,405 C275,405,275,405,275,405Z M267,-11 C237,-11,208.833,-9,182.5,-5 C156.167,-1,137.333,3.667,126,9 C126,9,136,77,136,77 C136,77,136,77,136,77 C147.333,73,163.667,69,185,65 C206.333,61,231.333,59,260,59 C260,59,260,59,260,59 C282.667,59,301.167,62.167,315.5,68.5 C329.833,74.833,341.167,83.333,349.5,94 C357.833,104.667,363.5,116.5,366.5,129.5 C369.5,142.5,371,156,371,170 C371,170,371,193,371,193 C371,193,371,193,371,193 C339.667,185.667,307.667,182,275,182 C275,182,275,182,275,182 C251,182,227.167,184.5,203.5,189.5 C179.833,194.5,158.833,202.667,140.5,214 C122.167,225.333,107.167,240.167,95.5,258.5 C83.833,276.833,78,299.333,78,326 C78,326,78,326,78,326 C78,356,83.667,380.667,95,400 C106.333,419.333,121.333,434.5,140,445.5 C158.667,456.5,180,464.167,204,468.5 C228,472.833,252.667,475,278,475 C278,475,278,475,278,475 C311.333,475,343.833,472.667,375.5,468 C407.167,463.333,432.667,459.333,452,456 C452,456,452,166,452,166 C452,166,452,166,452,166 C452,140,449,116,443,94 C437,72,426.667,53.333,412,38 C397.333,22.667,378.167,10.667,354.5,2 C330.833,-6.667,301.667,-11,267,-11 C267,-11,267,-11,267,-11Z"/></g></svg>